HIERARCHY
ROOT hips
{
  OFFSET 0 10.6860622 2.3727825e-15
  CHANNELS 6 Xposition Yposition Zposition Yrotation Xrotation Zrotation
  JOINT leftUpperLeg
  {
    OFFSET 0.6642549969 -0.9402397400000004 0
    CHANNELS 3 Yrotation Xrotation Zrotation
    JOINT leftLowerLeg
    {
      OFFSET 0 -3.997221335632195 0
      CHANNELS 3 Yrotation Xrotation Zrotation
      JOINT leftFoot
      {
        OFFSET -0.13777839790000004 -4.6145792000000005 -0.22186036399999998
        CHANNELS 3 Yrotation Xrotation Zrotation
        JOINT leftToes
        {
          OFFSET -0.03777410834999995 -0.9130806927000008 0.85230013
          CHANNELS 3 Yrotation Xrotation Zrotation
          End Site
          {
            OFFSET -0.03777410834999995 -0.9130806927000008 0.85230013
          }
        }
      }
    }
  }
  JOINT rightUpperLeg
  {
    OFFSET -0.6642778626 -0.9402397400000004 0
    CHANNELS 3 Yrotation Xrotation Zrotation
    JOINT rightLowerLeg
    {
      OFFSET 0 -3.997221452859387 0
      CHANNELS 3 Yrotation Xrotation Zrotation
      JOINT rightFoot
      {
        OFFSET 0.1377926176 -4.6145792000000005 -0.22185782299999995
        CHANNELS 3 Yrotation Xrotation Zrotation
        JOINT rightToes
        {
          OFFSET 0.037780746850000047 -0.9130806927000008 0.85230167
          CHANNELS 3 Yrotation Xrotation Zrotation
          End Site
          {
            OFFSET 0.037780746850000047 -0.9130806927000008 0.85230167
          }
        }
      }
    }
  }
  JOINT spine
  {
    OFFSET 0 0.13988381660000015 0
    CHANNELS 3 Yrotation Xrotation Zrotation
    JOINT chest
    {
      OFFSET 0 0.6191039003973773 0
      CHANNELS 3 Yrotation Xrotation Zrotation
      JOINT upperChest
      {
        OFFSET 0 0.9855186130586943 0
        CHANNELS 3 Yrotation Xrotation Zrotation
        JOINT leftShoulder
        {
          OFFSET 0.1807663869 1.5087829790000005 0
          CHANNELS 3 Yrotation Xrotation Zrotation
          JOINT leftUpperArm
          {
            OFFSET 0.5985063006419806 0 0
            CHANNELS 3 Yrotation Xrotation Zrotation
            JOINT leftLowerArm
            {
              OFFSET 2.2993332369501065 0 0
              CHANNELS 3 Yrotation Xrotation Zrotation
              JOINT leftHand
              {
                OFFSET 2.395047042602395 0 0
                CHANNELS 3 Yrotation Xrotation Zrotation
                JOINT leftIndexProximal
                {
                  OFFSET 0.5766295810000004 0.04556643899499946 0.17265095988184
                  CHANNELS 3 Yrotation Xrotation Zrotation
                  JOINT leftIndexIntermediate
                  {
                    OFFSET 0.2957229000000008 -0.019352197700001517 -0.007932640616999987
                    CHANNELS 3 Yrotation Xrotation Zrotation
                    JOINT leftIndexDistal
                    {
                      OFFSET 0.19008243099999922 -0.012484908149998475 -0.002786250786000012
                      CHANNELS 3 Yrotation Xrotation Zrotation
                      End Site
                      {
                        OFFSET 0.19008243099999922 -0.012484908149998475 -0.002786250786000012
                      }
                    }
                  }
                }
                JOINT leftMiddleProximal
                {
                  OFFSET 0.5834975091000001 0.0524350405149987 0.02204081888183999
                  CHANNELS 3 Yrotation Xrotation Zrotation
                  JOINT leftMiddleIntermediate
                  {
                    OFFSET 0.33880573540000003 -0.019871473270000717 -0.00000971183179999946
                    CHANNELS 3 Yrotation Xrotation Zrotation
                    JOINT leftMiddleDistal
                    {
                      OFFSET 0.20676022730000088 -0.012221336379999448 0.0001471936708000235
                      CHANNELS 3 Yrotation Xrotation Zrotation
                      End Site
                      {
                        OFFSET 0.20676022730000088 -0.012221336379999448 0.0001471936708000235
                      }
                    }
                  }
                }
                JOINT leftLittleProximal
                {
                  OFFSET 0.5344154683999995 -0.012880921405001189 -0.24414037221816004
                  CHANNELS 3 Yrotation Xrotation Zrotation
                  JOINT leftLittleIntermediate
                  {
                    OFFSET 0.21758961730000093 -0.011650919939999227 0.011893592810000034
                    CHANNELS 3 Yrotation Xrotation Zrotation
                    JOINT leftLittleDistal
                    {
                      OFFSET 0.1475273964999999 -0.008152365682999818 0.006001092492999946
                      CHANNELS 3 Yrotation Xrotation Zrotation
                      End Site
                      {
                        OFFSET 0.1475273964999999 -0.008152365682999818 0.006001092492999946
                      }
                    }
                  }
                }
                JOINT leftRingProximal
                {
                  OFFSET 0.5799399463000003 0.026911854694997794 -0.12150566991816003
                  CHANNELS 3 Yrotation Xrotation Zrotation
                  JOINT leftRingIntermediate
                  {
                    OFFSET 0.26167887460000006 -0.013480186499999602 0.010996293000000053
                    CHANNELS 3 Yrotation Xrotation Zrotation
                    JOINT leftRingDistal
                    {
                      OFFSET 0.17667108799999987 -0.008990287899999228 0.0055541023999999065
                      CHANNELS 3 Yrotation Xrotation Zrotation
                      End Site
                      {
                        OFFSET 0.17667108799999987 -0.008990287899999228 0.0055541023999999065
                      }
                    }
                  }
                }
                JOINT leftThumbProximal
                {
                  OFFSET 0.11018806699999972 -0.09448718900500053 0.17047963138184
                  CHANNELS 3 Yrotation Xrotation Zrotation
                  JOINT leftThumbIntermediate
                  {
                    OFFSET 0.31062601459999983 -0.08126270900000132 0.15443142000000007
                    CHANNELS 3 Yrotation Xrotation Zrotation
                    JOINT leftThumbDistal
                    {
                      OFFSET 0.21627175790000086 -0.08833193599999878 0.018771167799999988
                      CHANNELS 3 Yrotation Xrotation Zrotation
                      End Site
                      {
                        OFFSET 0.21627175790000086 -0.08833193599999878 0.018771167799999988
                      }
                    }
                  }
                }
              }
            }
          }
        }
        JOINT neck
        {
          OFFSET 0 1.5463305265074576 0
          CHANNELS 3 Yrotation Xrotation Zrotation
          JOINT head
          {
            OFFSET 0 0.8456443600000344 0
            CHANNELS 3 Yrotation Xrotation Zrotation
            JOINT leftEye
            {
              OFFSET 0.30408573140000006 0.5104519199999995 0.1276382305
              CHANNELS 3 Yrotation Xrotation Zrotation
              End Site
              {
                OFFSET 0.30408573140000006 0.5104519199999995 0.1276382305
              }
            }
            JOINT rightEye
            {
              OFFSET -0.30409491089999996 0.5104519199999995 0.1276379445
              CHANNELS 3 Yrotation Xrotation Zrotation
              End Site
              {
                OFFSET -0.30409491089999996 0.5104519199999995 0.1276379445
              }
            }
            JOINT jaw
            {
              OFFSET -3.155239131000001e-7 -0.11984121820000082 0.60178107
              CHANNELS 3 Yrotation Xrotation Zrotation
              End Site
              {
                OFFSET -3.155239131000001e-7 -0.11984121820000082 0.60178107
              }
            }
          }
        }
        JOINT rightShoulder
        {
          OFFSET -0.1807303465 1.5087829790000005 0
          CHANNELS 3 Yrotation Xrotation Zrotation
          JOINT rightUpperArm
          {
            OFFSET -0.5985063796536958 0 0
            CHANNELS 3 Yrotation Xrotation Zrotation
            JOINT rightLowerArm
            {
              OFFSET -2.2993322059002854 0 0
              CHANNELS 3 Yrotation Xrotation Zrotation
              JOINT rightHand
              {
                OFFSET -2.395045314457259 0 0
                CHANNELS 3 Yrotation Xrotation Zrotation
                JOINT rightIndexProximal
                {
                  OFFSET -0.5764487688300002 0.0441371204405987 0.17361932004999997
                  CHANNELS 3 Yrotation Xrotation Zrotation
                  JOINT rightIndexIntermediate
                  {
                    OFFSET -0.29573011380000047 -0.01934826376999843 -0.007698921482999974
                    CHANNELS 3 Yrotation Xrotation Zrotation
                    JOINT rightIndexDistal
                    {
                      OFFSET -0.19008373999999884 -0.012503266380000655 -0.0026365778999999897
                      CHANNELS 3 Yrotation Xrotation Zrotation
                      End Site
                      {
                        OFFSET -0.19008373999999884 -0.012503266380000655 -0.0026365778999999897
                      }
                    }
                  }
                }
                JOINT rightMiddleProximal
                {
                  OFFSET -0.5834852037300005 0.05211639405060153 0.02307162440000001
                  CHANNELS 3 Yrotation Xrotation Zrotation
                  JOINT rightMiddleIntermediate
                  {
                    OFFSET -0.33880114510000003 -0.019952774050000954 0.0002455003561999819
                    CHANNELS 3 Yrotation Xrotation Zrotation
                    JOINT rightMiddleDistal
                    {
                      OFFSET -0.20675694929999955 -0.012273788999999091 0.00030209124000002766
                      CHANNELS 3 Yrotation Xrotation Zrotation
                      End Site
                      {
                        OFFSET -0.20675694929999955 -0.012273788999999091 0.00030209124000002766
                      }
                    }
                  }
                }
                JOINT rightLittleProximal
                {
                  OFFSET -0.5346811737299992 -0.011214256288399227 -0.24363941305000003
                  CHANNELS 3 Yrotation Xrotation Zrotation
                  JOINT rightLittleIntermediate
                  {
                    OFFSET -0.21757715980000092 -0.011771559690000988 0.01201554387
                    CHANNELS 3 Yrotation Xrotation Zrotation
                    JOINT rightLittleDistal
                    {
                      OFFSET -0.1475201849000004 -0.00822055339600003 0.006082065407000015
                      CHANNELS 3 Yrotation Xrotation Zrotation
                      End Site
                      {
                        OFFSET -0.1475201849000004 -0.00822055339600003 0.006082065407000015
                      }
                    }
                  }
                }
                JOINT rightRingProximal
                {
                  OFFSET -0.5800810755299999 0.027657985680600072 -0.12066365025000003
                  CHANNELS 3 Yrotation Xrotation Zrotation
                  JOINT rightRingIntermediate
                  {
                    OFFSET -0.26166445029999974 -0.013623118409999302 0.011164098990000045
                    CHANNELS 3 Yrotation Xrotation Zrotation
                    JOINT rightRingDistal
                    {
                      OFFSET -0.17666387530000027 -0.009072900100000503 0.005668185599999959
                      CHANNELS 3 Yrotation Xrotation Zrotation
                      End Site
                      {
                        OFFSET -0.17666387530000027 -0.009072900100000503 0.005668185599999959
                      }
                    }
                  }
                }
                JOINT rightThumbProximal
                {
                  OFFSET -0.10997596379000074 -0.09577489355940072 0.16989765924999997
                  CHANNELS 3 Yrotation Xrotation Zrotation
                  JOINT rightThumbIntermediate
                  {
                    OFFSET -0.31036620999999986 -0.08229339117999834 0.15440884469999996
                    CHANNELS 3 Yrotation Xrotation Zrotation
                    JOINT rightThumbDistal
                    {
                      OFFSET -0.21631306399999906 -0.08825326400000111 0.018656797720000014
                      CHANNELS 3 Yrotation Xrotation Zrotation
                      End Site
                      {
                        OFFSET -0.21631306399999906 -0.08825326400000111 0.018656797720000014
                      }
                    }
                  }
                }
              }
            }
          }
        }
      }
    }
  }
}
MOTION
Frames: 9
Frame Time: 0.03333333333333333
0 11.682712981546562 0 0 0 0 0 0 -5.826343164929014 -0.3712483961610101 -3.6333298826370974 5.838118207697276 0 0 0 0 0 0 0 0 5.826343164929014 0.3712483961610101 -3.6333298826370974 -5.838118207697276 0 0 0 0 0 0 0 -4.610651315171937 0 0 3.0831277533083026 0 0 0 0 0 1.5275236235667615 0 0 0 0 0 0 0 0 0 0 0 0 0 0 0 0 0 0 0 0 0 0 0 0 0 0 0 0 0 0 0 0 0 0 0 0 0 0 0 0 0 0 0 0 0 0 0 0 0 0 0 0 0 0 0 0 1.5275236235667615 0 0 0 0 0 0 0 0 0 0 0 0 0 0 1.5275236235667615 0 0 0 0 0 0 0 0 0 0 0 0 0 0 0 0 0 0 0 0 0 0 0 0 0 0 0 0 0 0 0 0 0 0 0 0 0 0 0 0 0 0 0 0 0 0 0 0 0 0 0 0 0 0 0
-0.24911123892771952 -9.816858231587126 -1.3874350590577722 33.045886964450766 -17.732139352872842 -24.77799395329491 68.75995797052416 -36.65935387667658 -74.0245542639196 123.70079260172264 82.78941800729709 120.58994857316087 32.676302630142445 45.47155811254142 -2.7585193306601385 0 0 0 95.41643944024727 -46.144331000659236 -82.69782530540712 -169.1524038933562 66.74684596754832 -169.84594266824874 30.693038275449197 36.987563221435025 46.84261559764426 0 0 0 -4.717030235891895 -8.383208266863049 -3.9784223313695626 -0.052845947104707344 36.66682130489505 3.5131304845544666 0 0 0 5.275425199324113 -11.875933651499048 12.33379175988741 -31.99916937812229 13.783486292349819 -36.11072321772568 -68.25070109818593 22.59497429096465 22.01334236753103 24.428686338182363 -47.46265126405164 -30.388618173132176 0 0 0 0 0 0 0 0 0 0 0 0 0 0 0 0 0 0 0 0 0 0 0 0 0 0 0 0 0 0 0 0 0 0 0 0 0 0 0 0 0 0 0 0 0 0.30227095306725643 -2.3825293407717716 6.998669055562365 -2.813138525176542 4.944652112248988 17.25783627880349 0 0 0 0 0 0 0 0 0 15.712742749012532 -6.9914492405130835 -2.488604200426579 7.136029263917377 -3.0144663521823984 72.96960714840219 61.794854458478035 5.804830381021953 -11.95831453838728 -8.711835770719734 0.9068425902188563 0.3710898641801845 0 0 0 0 0 0 0 0 0 0 0 0 0 0 0 0 0 0 0 0 0 0 0 0 0 0 0 0 0 0 0 0 0 0 0 0 0 0 0 0 0 0 0 0 0
-0.24911123892771952 -9.816858231587126 -1.3874350590577722 33.045886964450766 -17.732139352872842 -24.77799395329491 68.75995797052416 -36.65935387667658 -74.0245542639196 123.70079260172264 82.78941800729709 120.58994857316087 32.676305259373706 45.47156298245981 -2.7585159864707793 0 0 0 95.41643944024727 -46.144331000659236 -82.69782530540712 -169.1524038933562 66.74684596754832 -169.84594266824874 30.693038275449197 36.987563221435025 46.84261559764426 0 0 0 -4.717030235891895 -8.383208266863049 -3.9784223313695626 -0.052845947104707344 36.66682130489505 3.5131304845544666 0 0 0 5.275425199324113 -11.875933651499048 12.33379175988741 -31.999171241463415 13.783487171438596 -36.11072321772568 -68.25069938033657 22.59497429096465 22.013345796876667 24.083077303890757 -47.571652030440795 -30.03049914155079 0 0 0 0 0 0 0 0 0 0 0 0 0 0 0 0 0 0 0 0 0 0 0 0 0 0 0 0 0 0 0 0 0 0 0 0 0 0 0 0 0 0 0 0 0 0.44206406629866124 -2.6527609184985734 6.8861287699963905 -2.8133472512398514 4.944982471528225 17.25790452931683 0 0 0 0 0 0 0 0 0 15.712742749012532 -6.9914492405130835 -2.488604200426579 7.136048352762794 -3.0145411608926596 72.96962022786595 61.923559303979495 5.804847973593414 -11.958311891439374 -8.708532211883362 0.9381186653334413 0.5753692519472836 0 0 0 0 0 0 0 0 0 0 0 0 0 0 0 0 0 0 0 0 0 0 0 0 0 0 0 0 0 0 0 0 0 0 0 0 0 0 0 0 0 0 0 0 0
-0.24911123892771952 -9.816858231587126 -1.3874350590577722 33.045886964450766 -17.732139352872842 -24.77799395329491 68.75995598653495 -36.65934961951249 -74.02455543559915 123.70079260172264 82.78941800729709 120.58994857316087 32.676302630142445 45.47155811254142 -2.7585193306601385 0 0 0 95.41643944024727 -46.144331000659236 -82.69782530540712 -169.1524038933562 66.74684596754832 -169.84594266824874 30.69304045780977 36.98756749689762 46.84261559764426 0 0 0 -4.717030235891895 -8.383208266863049 -3.9784223313695626 -0.052845947104707344 36.66682556247241 3.5131304798487015 0 0 0 5.275425199324113 -11.875933651499048 12.33379175988741 -31.99916937812229 13.783486292349819 -36.11072321772568 -68.25070109818593 22.59497429096465 22.01334236753103 23.735435612801375 -47.67927726031758 -29.670349364616612 0 0 0 0 0 0 0 0 0 0 0 0 0 0 0 0 0 0 0 0 0 0 0 0 0 0 0 0 0 0 0 0 0 0 0 0 0 0 0 0 0 0 0 0 0 0.5825296248960815 -2.9229243975315398 6.772812850210934 -2.813554953337796 4.945313259454144 17.25797277989937 0 0 0 0 0 0 0 0 0 15.712744405065276 -6.9914492405130835 -2.488604200426579 7.1360670174440894 -3.01461297725935 72.96962676759851 62.05229189949049 5.804865566165426 -11.958306854135227 -8.705114973827712 0.9694013174930415 0.7797797945238675 0 0 0 0 0 0 0 0 0 0 0 0 0 0 0 0 0 0 0 0 0 0 0 0 0 0 0 0 0 0 0 0 0 0 0 0 0 0 0 0 0 0 0 0 0
-0.24911123892771952 -9.816858231587126 -1.3874350590577722 33.04588891962671 -17.732139352872842 -24.777995580972515 68.75995797052416 -36.65935387667658 -74.0245542639196 123.70079260172264 82.78941800729709 120.58994857316087 32.676303209785274 45.4715678523786 -2.7585159168261226 0 0 0 95.41643882686151 -46.14432607156427 -82.69782469426737 -169.15240821125147 66.74683731723897 -169.84594784697435 30.693038275449197 36.987563221435025 46.84261559764426 0 0 0 -4.717030235891895 -8.383208266863049 -3.9784223313695626 -0.052845947104707344 36.66682130489505 3.5131304845544666 0 0 0 5.275425199324113 -11.875933651499048 12.333793464510734 -31.99916937812229 13.783486292349819 -36.11072321772568 -68.25069938033657 22.59497429096465 22.013345796876667 23.385771421913805 -47.7855137293521 -29.308173071149476 0 0 0 0 0 0 0 0 0 0 0 0 0 0 0 0 0 0 0 0 0 0 0 0 0 0 0 0 0 0 0 0 0 0 0 0 0 0 0 0 0 0 0 0 0 0.723672052891707 -3.193014409740537 6.65871959427792 -2.8137632975836775 4.945642333616948 17.258042667315525 0 0 0 0 0 0 0 0 0 15.712742749012532 -6.9914492405130835 -2.488604200426579 7.1360873787969 -3.0146882134581103 72.96964902332557 62.181048158579756 5.804884445999415 -11.958305175033802 -8.701583723654531 1.0006917303203258 0.9843197151998911 0 0 0 0 0 0 0 0 0 0 0 0 0 0 0 0 0 0 0 0 0 0 0 0 0 0 0 0 0 0 0 0 0 0 0 0 0 0 0 0 0 0 0 0 0
-0.24911123892771952 -9.816858231587126 -1.3874350590577722 33.04588891962671 -17.732141145590763 -24.77799395329491 68.75995797052416 -36.65935387667658 -74.0245542639196 123.70089352057069 82.78939079900887 120.59004758175968 32.67630730896204 45.47156298245981 -2.758518418608497 0 0 0 95.41643821347574 -46.14432607156427 -82.69782469426737 -169.1524038933562 66.74684596754832 -169.84594266824874 30.693038275449197 36.987563221435025 46.84261559764426 0 0 0 -4.717031095963561 -8.383208266863049 -3.9784223313695626 -0.052845947104707344 36.66682130489505 3.5131304845544666 0 0 0 5.275425199324113 -11.875934523946999 12.33379175988741 -31.999166396057 13.783483655083508 -36.11072321772568 -68.25070934023942 22.59497429096465 22.013344082203872 23.034101946751143 -47.89034309284408 -28.943989375043163 0 0 0 0 0 0 0 0 0 0 0 0 0 0 0 0 0 0 0 0 0 0 0 0 0 0 0 0 0 0 0 0 0 0 0 0 0 0 0 0 0 0 0 0 0 0.865497617112539 -3.4630217215797865 6.543841158647243 -2.813970954383335 4.945973550354815 17.258112554801308 0 0 0 0 0 0 0 0 0 15.712744405065276 -6.9914492405130835 -2.488604200426579 7.136105618650009 -3.0147600298345076 72.96965456146702 62.30981811298208 5.804902038572565 -11.958300848983397 -8.697940987233704 1.031988739237136 1.1889899986350623 0 0 0 0 0 0 0 0 0 0 0 0 0 0 0 0 0 0 0 0 0 0 0 0 0 0 0 0 0 0 0 0 0 0 0 0 0 0 0 0 0 0 0 0 0
-0.24911123892771952 -9.816858231587126 -1.3874350590577722 33.04588891962671 -17.732141145590763 -24.777998711318613 68.75995598653495 -36.65934961951249 -74.02455543559915 123.70079260172264 82.78941800729709 120.58994857316087 32.67631198778209 45.47156298245981 -2.758511122195314 0 0 0 95.41643821347574 -46.14432607156427 -82.69782469426737 -169.15240495532368 66.74684596754832 -169.84594373260157 30.693038275449197 36.987563221435025 46.842621640935036 0 0 0 -4.717030235891895 -8.383208266863049 -3.9784223313695626 -0.052845947104707344 36.66682130489505 3.5131304845544666 0 0 0 5.275425199324113 -11.875934523946999 12.33379175988741 -31.99916937812229 13.783486292349819 -36.11072321772568 -68.25069938033657 22.59497429096465 22.013348898024407 22.680446953700283 -47.993767354414274 -28.577813995496392 0 0 0 0 0 0 0 0 0 0 0 0 0 0 0 0 0 0 0 0 0 0 0 0 0 0 0 0 0 0 0 0 0 0 0 0 0 0 0 0 0 0 0 0 0 1.0080119711055382 -3.732940927350109 6.428177300614119 -2.814179513024538 4.94630262484579 17.25818080559192 0 0 0 0 0 0 0 0 0 15.712744405065276 -6.9914492405130835 -2.488604200426579 7.136124707506279 -3.0148346248257254 72.96967681719897 62.438622241740774 5.804919631146263 -11.95829581167853 -8.694179677449107 1.0632910728925433 1.393787051053372 0 0 0 0 0 0 0 0 0 0 0 0 0 0 0 0 0 0 0 0 0 0 0 0 0 0 0 0 0 0 0 0 0 0 0 0 0 0 0 0 0 0 0 0 0
-0.24911123892771952 -9.816858231587126 -1.3874350590577722 33.045886964450766 -17.732137560154946 -24.77799232561727 68.75995444426616 -36.65935387667658 -74.0245542639196 123.7007435581002 82.78941800729709 120.58989760491336 32.67629795132331 45.47155811254142 -2.7585190962873107 0 0 0 95.41644066701879 -46.144331000659236 -82.69782530540712 -169.15239631952613 66.74685461786072 -169.84593550384875 30.69303643718347 36.987563221435025 46.842609554353444 0 0 0 -4.7170293758202275 -8.383207403868395 -3.9784214704544945 -0.05284591384239858 36.66682130489505 3.513129422160409 0 0 0 5.275425633700337 -11.875933651499048 12.333790162133292 -31.99916937812229 13.783486292349819 -36.11072321772568 -68.25070109818593 22.59497429096465 22.01334236753103 22.324794598845067 -48.095747713809125 -28.20964361505759 0 0 0 0 0 0 0 0 0 0 0 0 0 0 0 0 0 0 0 0 0 0 0 0 0 0 0 0 0 0 0 0 0 0 0 0 0 0 0 0 0 0 0 0 0 1.1512184709722495 -4.002762536413719 6.311719993839213 -2.8143872159341368 4.946631699500338 17.258247419686683 0 0 0 0 0 0 0 0 0 15.712742749012532 -6.9914492405130835 -2.488604200426579 7.1361429480312335 -3.014906654951039 72.96967581560736 62.56745981277957 5.804938510982063 -11.9582949721277 -8.690307195585254 1.0945985273068852 1.5987107922513122 0 0 0 0 0 0 0 0 0 0 0 0 0 0 0 0 0 0 0 0 0 0 0 0 0 0 0 0 0 0 0 0 0 0 0 0 0 0 0 0 0 0 0 0 0
-0.24911123892771952 -9.816858231587126 -1.3874350590577722 33.045886964450766 -17.732139352872842 -24.77799395329491 68.75995444426616 -36.65935387667658 -74.02454388354897 123.70079448880927 82.78941800729709 120.5899515008815 32.676300580554106 45.47155811254142 -2.7585181145912827 0 0 0 95.41643944024727 -46.144331000659236 -82.69782530540712 -169.1524038933562 66.74684596754832 -169.84594266824874 30.69303643718347 36.987563221435025 46.842609554353444 0 0 0 -4.717030235891895 -8.383208266863049 -3.9784214704544945 -0.052845943177792315 36.66681704731794 3.5131307501529805 0 0 0 5.275424764947889 -11.875932779051103 12.333790162133292 -31.99916937812229 13.783486292349819 -36.11072321772568 -68.25070109818593 22.59497429096465 22.013344082203872 21.967184364437546 -48.196281016876654 -27.839515904225237 0 0 0 0 0 0 0 0 0 0 0 0 0 0 0 0 0 0 0 0 0 0 0 0 0 0 0 0 0 0 0 0 0 0 0 0 0 0 0 0 0 0 0 0 0 1.2951249433526029 -4.2724808843393935 6.194467046187296 -2.8145957293149833 4.946961631284352 17.258317307380764 0 0 0 0 0 0 0 0 0 15.712742749012532 -6.991447090089126 -2.488604200426579 7.136162461060649 -3.0149801812559818 72.96969053001503 62.69628681854294 5.804955245382505 -11.958288255720875 -8.686318986509082 1.1259102580474403 1.8037595342194006 0 0 0 0 0 0 0 0 0 0 0 0 0 0 0 0 0 0 0 0 0 0 0 0 0 0 0 0 0 0 0 0 0 0 0 0 0 0 0 0 0 0 0 0 0
